<?xml version="1.0" encoding="UTF-8"?>
<svg xmlns="http://www.w3.org/2000/svg" xmlns:xlink="http://www.w3.org/1999/xlink" width="20pt" height="20pt" viewBox="0 0 20 20" version="1.1">
<g id="surface1">
<path style=" stroke:none;fill-rule:evenodd;fill:rgb(100%,100%,100%);fill-opacity:1;" d="M 13.367188 0.0195312 C 13.382812 0 13.410156 -0.0078125 13.429688 0.0078125 L 14.851562 1.003906 C 14.871094 1.015625 14.875 1.046875 14.863281 1.066406 L 12.886719 3.890625 C 13.847656 4.195312 14.5 4.527344 14.5 4.527344 C 14.5 4.527344 12.902344 7.28125 10.1875 7.28125 C 7.472656 7.28125 5.542969 4.714844 5.542969 4.714844 C 5.542969 4.714844 6.226562 4.277344 7.242188 3.902344 L 5.074219 1.320312 C 5.058594 1.300781 5.058594 1.273438 5.078125 1.253906 L 6.40625 0.140625 C 6.425781 0.125 6.457031 0.128906 6.472656 0.148438 L 9.21875 3.417969 C 9.453125 3.390625 9.691406 3.375 9.933594 3.375 C 10.28125 3.375 10.628906 3.402344 10.964844 3.449219 Z M 13.902344 7.410156 C 14.628906 6.894531 15.722656 5.542969 15.722656 5.542969 C 15.722656 5.542969 18.523438 7.761719 18.523438 12.464844 C 18.523438 17.167969 13.683594 20 13.683594 20 C 13.683594 20 11.371094 17.664062 10.804688 14.703125 C 10.238281 11.742188 11.644531 8.457031 11.644531 8.457031 C 11.644531 8.457031 13.179688 7.925781 13.902344 7.410156 Z M 6.105469 7.410156 C 5.378906 6.894531 4.285156 5.542969 4.285156 5.542969 C 4.285156 5.542969 1.484375 7.761719 1.484375 12.464844 C 1.484375 17.167969 6.324219 20 6.324219 20 C 6.324219 20 8.636719 17.664062 9.203125 14.703125 C 9.773438 11.742188 8.363281 8.457031 8.363281 8.457031 C 8.363281 8.457031 6.828125 7.925781 6.105469 7.410156 Z M 6.105469 7.410156 "/>
</g>
</svg>
