<?xml version="1.0" encoding="UTF-8"?>
<svg xmlns="http://www.w3.org/2000/svg" xmlns:xlink="http://www.w3.org/1999/xlink" width="20pt" height="20pt" viewBox="0 0 20 20" version="1.1">
<g id="surface1">
<path style=" stroke:none;fill-rule:evenodd;fill:rgb(100%,100%,100%);fill-opacity:1;" d="M 8.960938 17.6875 C 9.339844 17.746094 9.730469 17.777344 10.125 17.777344 C 14.34375 17.777344 17.765625 14.359375 17.765625 10.140625 C 17.765625 5.921875 14.34375 2.5 10.125 2.5 C 9.84375 2.5 9.5625 2.515625 9.289062 2.546875 C 11.378906 4.132812 12.765625 6.878906 12.765625 10 C 12.765625 13.28125 11.234375 16.148438 8.960938 17.6875 Z M 9.988281 20 C 15.507812 20 19.988281 15.523438 19.988281 10 C 19.988281 4.476562 15.507812 0 9.988281 0 C 4.464844 0 -0.0117188 4.476562 -0.0117188 10 C -0.0117188 15.523438 4.464844 20 9.988281 20 Z M 9.988281 20 "/>
</g>
</svg>
