<?xml version="1.0" encoding="UTF-8"?>
<svg xmlns="http://www.w3.org/2000/svg" xmlns:xlink="http://www.w3.org/1999/xlink" width="20pt" height="20pt" viewBox="0 0 20 20" version="1.1">
<g id="surface1">
<path style=" stroke:none;fill-rule:evenodd;fill:rgb(100%,100%,100%);fill-opacity:1;" d="M 10.964844 9.957031 C 11.101562 9.875 11.214844 9.699219 11.308594 9.507812 C 12.527344 10.007812 13.386719 11.183594 13.386719 12.558594 C 13.386719 14.386719 11.871094 15.867188 10.003906 15.867188 C 9.238281 15.867188 8.53125 15.617188 7.964844 15.195312 C 7.777344 15.109375 7.625 15.023438 7.5 14.953125 C 7.304688 14.847656 7.179688 14.777344 7.097656 14.789062 C 6.867188 14.820312 6.933594 15.035156 6.996094 15.230469 C 7.039062 15.363281 7.074219 15.484375 7.015625 15.535156 C 6.953125 15.589844 6.75 15.394531 6.511719 15.167969 C 6.183594 14.859375 5.796875 14.488281 5.613281 14.597656 C 5.46875 14.6875 5.609375 14.925781 5.78125 15.21875 L 5.792969 15.238281 C 5.867188 15.363281 5.949219 15.488281 6.027344 15.601562 C 6.183594 15.835938 6.308594 16.023438 6.246094 16.054688 C 6.171875 16.09375 5.640625 15.734375 5.191406 15.238281 C 5.019531 15.046875 4.851562 14.839844 4.699219 14.644531 C 4.359375 14.222656 4.074219 13.871094 3.914062 13.910156 C 3.722656 13.960938 3.867188 14.355469 4.082031 14.734375 C 4.179688 14.914062 4.296875 15.09375 4.398438 15.25 C 4.558594 15.496094 4.675781 15.679688 4.632812 15.703125 C 4.574219 15.734375 4.058594 15.230469 3.710938 14.597656 C 3.503906 14.222656 3.328125 13.808594 3.1875 13.472656 C 3.035156 13.105469 2.917969 12.835938 2.84375 12.808594 C 2.582031 12.710938 2.582031 13.246094 2.6875 14.011719 C 2.703125 14.113281 2.722656 14.21875 2.746094 14.324219 C 3.761719 17.609375 6.878906 20 10.570312 20 C 15.082031 20 18.738281 16.421875 18.738281 12.007812 C 18.738281 7.808594 15.425781 4.363281 11.214844 4.042969 C 11.222656 3.84375 11.324219 3.453125 11.324219 3.453125 C 11.324219 3.453125 12.066406 1.652344 12.105469 1.269531 C 12.109375 1.246094 12.113281 1.214844 12.117188 1.1875 C 12.160156 0.773438 12.25 0 11.585938 0 C 11.230469 0 11.0625 0.265625 10.875 0.566406 C 10.804688 0.679688 10.726562 0.804688 10.636719 0.917969 C 9.976562 1.738281 8.867188 2.765625 8.242188 3.316406 C 6.914062 4.472656 5.609375 5.421875 4.851562 5.976562 C 4.503906 6.230469 4.269531 6.398438 4.199219 6.46875 C 3.65625 7 1.703125 10.519531 1.703125 10.519531 C 1.703125 10.519531 1.074219 11.648438 1.296875 11.875 C 1.523438 12.105469 2.0625 12.054688 2.0625 12.054688 C 2.0625 12.054688 9.328125 10.386719 9.976562 10.253906 C 10.152344 10.21875 10.273438 10.199219 10.371094 10.183594 C 10.628906 10.140625 10.675781 10.132812 10.964844 9.957031 Z M 5.828125 7.816406 C 5.441406 8.1875 4.792969 9.070312 4.792969 9.070312 C 4.792969 9.070312 5.996094 9.144531 6.65625 8.515625 C 7.320312 7.886719 7.167969 6.8125 7.167969 6.8125 C 7.167969 6.8125 6.21875 7.445312 5.828125 7.816406 Z M 5.828125 7.816406 "/>
</g>
</svg>
