<?xml version="1.0" encoding="UTF-8"?>
<svg xmlns="http://www.w3.org/2000/svg" xmlns:xlink="http://www.w3.org/1999/xlink" width="20pt" height="20pt" viewBox="0 0 20 20" version="1.1">
<g id="surface1">
<path style=" stroke:none;fill-rule:evenodd;fill:rgb(100%,100%,100%);fill-opacity:1;" d="M 5.960938 0.0234375 C 5.957031 0.0117188 5.964844 0 5.976562 0 L 13 0 C 13.007812 0 13.015625 0.00390625 13.015625 0.0117188 L 16.242188 10.4375 C 16.246094 10.449219 16.238281 10.457031 16.226562 10.457031 L 11.550781 10.457031 C 11.542969 10.457031 11.539062 10.464844 11.542969 10.46875 L 14.222656 19.910156 C 14.230469 19.929688 14.207031 19.941406 14.195312 19.925781 L 3.769531 6.066406 C 3.761719 6.054688 3.769531 6.039062 3.785156 6.039062 L 8.027344 6.039062 C 8.035156 6.039062 8.039062 6.03125 8.035156 6.027344 Z M 5.960938 0.0234375 "/>
</g>
</svg>
