<?xml version="1.0" encoding="UTF-8"?>
<svg xmlns="http://www.w3.org/2000/svg" xmlns:xlink="http://www.w3.org/1999/xlink" width="20pt" height="20pt" viewBox="0 0 20 20" version="1.1">
<g id="surface1">
<path style=" stroke:none;fill-rule:evenodd;fill:rgb(100%,100%,100%);fill-opacity:1;" d="M 4.011719 15.859375 L 7.21875 14.929688 L 9.992188 19.996094 C 9.996094 20 10.003906 20 10.007812 19.996094 L 12.777344 14.929688 L 15.988281 15.859375 C 15.992188 15.859375 16 15.855469 16 15.847656 L 15.066406 12.703125 L 19.996094 10.007812 C 20 10.003906 20 9.996094 19.996094 9.992188 L 15.027344 7.273438 L 16 3.992188 C 16 3.984375 15.992188 3.980469 15.988281 3.980469 L 12.703125 4.933594 L 10.007812 0.00390625 C 10.003906 0 9.996094 0 9.992188 0.00390625 L 7.296875 4.933594 L 4.011719 3.980469 C 4.003906 3.980469 4 3.984375 4 3.992188 L 4.972656 7.273438 L 0.00390625 9.992188 C 0 9.996094 0 10.003906 0.00390625 10.007812 L 4.929688 12.703125 L 4 15.847656 C 4 15.855469 4.003906 15.859375 4.011719 15.859375 Z M 6.503906 10.035156 L 8.773438 11.277344 L 10.015625 13.550781 C 10.019531 13.554688 10.03125 13.554688 10.035156 13.550781 L 11.277344 11.277344 L 13.550781 10.035156 C 13.554688 10.03125 13.554688 10.019531 13.550781 10.015625 L 11.277344 8.773438 L 10.035156 6.503906 C 10.03125 6.496094 10.019531 6.496094 10.015625 6.503906 L 8.773438 8.773438 L 6.503906 10.015625 C 6.496094 10.019531 6.496094 10.03125 6.503906 10.035156 Z M 6.503906 10.035156 "/>
</g>
</svg>
