<?xml version="1.0" encoding="UTF-8"?>
<svg xmlns="http://www.w3.org/2000/svg" xmlns:xlink="http://www.w3.org/1999/xlink" width="20pt" height="20pt" viewBox="0 0 20 20" version="1.1">
<g id="surface1">
<path style=" stroke:none;fill-rule:evenodd;fill:rgb(100%,100%,100%);fill-opacity:1;" d="M 3.445312 1.664062 C 3.6875 0.707031 4.554688 0 5.585938 0 C 6.359375 0 7.039062 0.398438 7.433594 1 L 8.078125 1 C 8.480469 0.589844 9.039062 0.332031 9.65625 0.332031 C 10.566406 0.332031 11.347656 0.882812 11.683594 1.667969 L 12.226562 1.667969 C 12.5625 1.457031 12.964844 1.332031 13.390625 1.332031 C 14.300781 1.332031 15.078125 1.882812 15.417969 2.667969 L 16.886719 2.667969 C 16.898438 2.667969 16.910156 2.671875 16.921875 2.675781 C 16.988281 2.667969 17.054688 2.667969 17.125 2.667969 C 18.34375 2.667969 19.332031 3.65625 19.332031 4.871094 L 19.332031 11.609375 C 19.332031 11.648438 19.328125 11.6875 19.328125 11.726562 C 19.195312 16.316406 15.066406 20 9.996094 20 C 4.84375 20 0.664062 16.195312 0.664062 11.5 C 0.664062 9.234375 1.636719 7.175781 3.226562 5.652344 C 3.222656 7.859375 3.257812 10.144531 3.429688 10.105469 C 3.890625 10 3.53125 3.15625 3.445312 1.664062 Z M 3.445312 1.664062 "/>
</g>
</svg>
