<?xml version="1.0" encoding="UTF-8"?>
<svg xmlns="http://www.w3.org/2000/svg" xmlns:xlink="http://www.w3.org/1999/xlink" width="20pt" height="20pt" viewBox="0 0 20 20" version="1.1">
<g id="surface1">
<path style=" stroke:none;fill-rule:evenodd;fill:rgb(100%,100%,100%);fill-opacity:1;" d="M 13.761719 15.445312 C 14.007812 14.542969 13.527344 12.683594 13.527344 12.683594 C 13.527344 12.683594 13.179688 14.195312 12.636719 14.757812 C 12.171875 15.234375 11.605469 15.566406 10.789062 15.652344 C 11.457031 15.328125 11.914062 14.652344 11.914062 13.875 C 11.914062 12.777344 11.011719 11.890625 9.898438 11.890625 C 8.785156 11.890625 7.878906 12.777344 7.878906 13.875 C 7.878906 14.171875 7.949219 14.457031 8.070312 14.710938 C 7.371094 14.15625 7.261719 13.265625 7.261719 13.265625 C 7.261719 13.265625 6.484375 16.496094 8.628906 18.015625 C 10.769531 19.53125 14.96875 18.226562 14.96875 18.226562 C 14.96875 18.226562 8.960938 22.453125 4.507812 17.851562 C 0.675781 13.890625 3.507812 8.671875 3.507812 8.671875 C 3.507812 8.671875 3.386719 9.15625 3.386719 9.71875 C 3.386719 10.28125 3.691406 10.707031 3.691406 10.707031 C 3.691406 10.707031 4.597656 8.792969 5.304688 8.011719 C 5.976562 7.277344 6.816406 6.675781 7.539062 6.160156 C 8.097656 5.761719 8.585938 5.414062 8.878906 5.085938 C 10.492188 3.285156 9.503906 0 9.503906 0 C 9.503906 0 11.320312 1.601562 11.828125 3.671875 C 12.023438 4.460938 11.898438 5.359375 11.785156 6.160156 C 11.605469 7.464844 11.460938 8.515625 12.765625 8.449219 C 14.875 8.335938 13.042969 5.085938 13.042969 5.085938 C 13.042969 5.085938 17.824219 7.601562 17.46875 11.996094 C 17.109375 16.394531 12.238281 17.394531 12.238281 17.394531 C 12.238281 17.394531 13.511719 16.347656 13.761719 15.445312 Z M 13.761719 15.445312 "/>
</g>
</svg>
