<?xml version="1.0" encoding="UTF-8"?>
<svg xmlns="http://www.w3.org/2000/svg" xmlns:xlink="http://www.w3.org/1999/xlink" width="20pt" height="20pt" viewBox="0 0 20 20" version="1.1">
<g id="surface1">
<path style=" stroke:none;fill-rule:evenodd;fill:rgb(100%,100%,100%);fill-opacity:1;" d="M 6.980469 18.660156 C 9.910156 18.660156 12.417969 17.03125 13.453125 14.726562 C 13.46875 14.695312 9.296875 15.808594 9.429688 15.414062 C 9.488281 15.238281 12.046875 14.304688 13.90625 13.21875 C 14.980469 12.589844 15.472656 11.265625 15.472656 11.265625 C 15.472656 11.265625 13.667969 12.140625 12.757812 12.363281 C 10.917969 12.8125 9.300781 12.761719 9.300781 12.714844 C 9.300781 12.617188 11.988281 12.105469 15.71875 9.832031 C 17.476562 8.761719 17.953125 6.917969 17.953125 6.917969 C 17.953125 6.917969 16.023438 8.066406 14.855469 8.449219 C 12.089844 9.347656 9.5625 9.617188 9.5625 9.496094 C 9.5625 9.234375 11.785156 8.625 14.140625 7.484375 C 15.367188 6.890625 16.425781 6.113281 17.65625 5.253906 C 19.667969 3.839844 20 1.328125 20 1.328125 C 20 1.328125 18.015625 2.609375 17.046875 3.03125 C 13.050781 4.785156 9.523438 5.707031 6.980469 5.90625 C 3.140625 6.207031 0 8.886719 0 12.363281 C 0 15.839844 3.125 18.660156 6.980469 18.660156 Z M 6.980469 18.660156 "/>
</g>
</svg>
