<?xml version="1.0" encoding="UTF-8"?>
<svg xmlns="http://www.w3.org/2000/svg" xmlns:xlink="http://www.w3.org/1999/xlink" width="20pt" height="20pt" viewBox="0 0 20 20" version="1.1">
<g id="surface1">
<path style=" stroke:none;fill-rule:evenodd;fill:rgb(100%,100%,100%);fill-opacity:1;" d="M 14.414062 19.929688 C 12.609375 20.023438 10.542969 20.023438 9.839844 19.929688 C 4.367188 19.210938 0 15.207031 0 9.796875 C 0 4.386719 4.476562 0 10 0 C 15.523438 0 20 4.386719 20 9.796875 C 20 12.3125 19.03125 14.609375 17.441406 16.34375 C 17.007812 16.8125 17.601562 17.144531 18.203125 17.480469 C 18.792969 17.808594 19.394531 18.144531 19.046875 18.621094 C 18.660156 19.148438 16.578125 19.820312 14.414062 19.929688 Z M 8.59375 8.570312 C 8.59375 9.417969 7.894531 10.101562 7.03125 10.101562 C 6.167969 10.101562 5.46875 9.417969 5.46875 8.570312 C 5.46875 8.003906 5.785156 7.511719 6.25 7.246094 C 6.277344 7.984375 6.882812 8.570312 7.628906 8.570312 Z M 13.4375 7.246094 C 13.410156 7.984375 12.804688 8.570312 12.058594 8.570312 L 11.09375 8.570312 C 11.09375 9.417969 11.792969 10.101562 12.65625 10.101562 C 13.519531 10.101562 14.21875 9.417969 14.21875 8.570312 C 14.21875 8.003906 13.902344 7.511719 13.4375 7.246094 Z M 13.4375 7.246094 "/>
</g>
</svg>
