<?xml version="1.0" encoding="UTF-8"?>
<svg xmlns="http://www.w3.org/2000/svg" xmlns:xlink="http://www.w3.org/1999/xlink" width="20pt" height="20pt" viewBox="0 0 20 20" version="1.1">
<g id="surface1">
<path style=" stroke:none;fill-rule:evenodd;fill:rgb(100%,100%,100%);fill-opacity:1;" d="M 3.804688 17.210938 C 3.738281 17.148438 3.667969 17.082031 3.601562 17.015625 C 0.0585938 13.472656 0.0585938 7.730469 3.601562 4.1875 C 7.144531 0.644531 18.429688 0.40625 18.429688 0.40625 C 18.429688 0.40625 19.972656 13.472656 16.429688 17.015625 C 13.285156 20.160156 8.402344 20.511719 4.867188 18.070312 L 7.714844 14.578125 L 12.269531 13.59375 L 8.550781 13.222656 L 10.914062 10.816406 L 13.601562 10.226562 L 11.476562 9.597656 L 13.601562 5.761719 L 10.578125 9.15625 L 9.410156 7.507812 L 9.820312 10.226562 L 7.714844 12.601562 L 6.738281 9.597656 L 6.738281 13.59375 Z M 3.804688 17.210938 "/>
</g>
</svg>
