<?xml version="1.0" encoding="UTF-8"?>
<svg xmlns="http://www.w3.org/2000/svg" xmlns:xlink="http://www.w3.org/1999/xlink" width="20pt" height="20pt" viewBox="0 0 20 20" version="1.1">
<g id="surface1">
<path style=" stroke:none;fill-rule:evenodd;fill:rgb(100%,100%,100%);fill-opacity:1;" d="M 4.40625 17.179688 C 4.398438 17.179688 4.394531 17.171875 4.398438 17.167969 L 9.503906 2.738281 C 9.503906 2.738281 9.507812 2.734375 9.511719 2.734375 L 14.960938 2.734375 C 14.964844 2.734375 14.96875 2.738281 14.96875 2.738281 L 20 17.167969 C 20 17.171875 19.996094 17.179688 19.992188 17.179688 Z M 0.0078125 17.234375 C 0.00390625 17.234375 0 17.230469 0 17.222656 L 3.804688 7.074219 C 3.804688 7.070312 3.808594 7.066406 3.808594 7.066406 L 7.113281 7.066406 C 7.121094 7.066406 7.125 7.074219 7.121094 7.078125 L 3.445312 17.230469 C 3.445312 17.230469 3.441406 17.234375 3.4375 17.234375 Z M 0.0078125 17.234375 "/>
</g>
</svg>
