<?xml version="1.0" encoding="UTF-8"?>
<svg xmlns="http://www.w3.org/2000/svg" xmlns:xlink="http://www.w3.org/1999/xlink" width="20pt" height="20pt" viewBox="0 0 20 20" version="1.1">
<g id="surface1">
<path style=" stroke:none;fill-rule:evenodd;fill:rgb(100%,100%,100%);fill-opacity:1;" d="M 15.011719 1.523438 L 15.074219 6.929688 L 10.359375 9.191406 L 10.300781 4.089844 Z M 15.011719 1.523438 "/>
<path style=" stroke:none;fill-rule:evenodd;fill:rgb(100%,100%,100%);fill-opacity:1;" d="M 19.738281 10.039062 L 15.070312 12.710938 L 10.402344 10.035156 L 15.070312 7.585938 Z M 19.738281 10.039062 "/>
<path style=" stroke:none;fill-rule:evenodd;fill:rgb(100%,100%,100%);fill-opacity:1;" d="M 9.570312 10.039062 L 4.90625 12.710938 L 0.238281 10.035156 L 4.902344 7.585938 Z M 9.570312 10.039062 "/>
<path style=" stroke:none;fill-rule:evenodd;fill:rgb(100%,100%,100%);fill-opacity:1;" d="M 4.851562 1.503906 L 9.695312 3.902344 L 9.574219 9.128906 L 5 6.863281 Z M 4.851562 1.503906 "/>
<path style=" stroke:none;fill-rule:evenodd;fill:rgb(100%,100%,100%);fill-opacity:1;" d="M 15.144531 18.496094 L 10.300781 16.097656 L 10.425781 10.871094 L 14.996094 13.136719 Z M 15.144531 18.496094 "/>
<path style=" stroke:none;fill-rule:evenodd;fill:rgb(100%,100%,100%);fill-opacity:1;" d="M 5.019531 18.546875 L 4.957031 13.140625 L 9.671875 10.878906 L 9.730469 15.980469 Z M 5.019531 18.546875 "/>
</g>
</svg>
