<?xml version="1.0" encoding="UTF-8"?>
<svg xmlns="http://www.w3.org/2000/svg" xmlns:xlink="http://www.w3.org/1999/xlink" width="20pt" height="20pt" viewBox="0 0 20 20" version="1.1">
<g id="surface1">
<path style=" stroke:none;fill-rule:evenodd;fill:rgb(100%,100%,100%);fill-opacity:1;" d="M 16.710938 15.367188 C 18.730469 13.753906 20 11.421875 20 8.828125 C 20 3.953125 15.523438 0 10 0 C 4.476562 0 0 3.953125 0 8.828125 C 0 11.328125 1.179688 13.585938 3.074219 15.191406 C 2.957031 15.585938 2.894531 16.019531 2.894531 16.46875 C 2.894531 18.417969 4.074219 20 5.527344 20 C 6.46875 20 7.300781 19.332031 7.761719 18.332031 C 8.226562 19.332031 9.054688 20 10 20 C 10.859375 20 11.625 19.445312 12.105469 18.589844 C 12.585938 19.445312 13.351562 20 14.210938 20 C 15.664062 20 16.84375 18.417969 16.84375 16.46875 C 16.84375 16.085938 16.796875 15.714844 16.710938 15.367188 Z M 15.789062 9 C 15.789062 11.476562 13.136719 13.480469 9.867188 13.480469 C 6.597656 13.480469 3.949219 11.476562 3.949219 9 C 3.949219 6.527344 6.597656 4.519531 9.867188 4.519531 C 13.136719 4.519531 15.789062 6.527344 15.789062 9 Z M 15.789062 9 "/>
</g>
</svg>
