<?xml version="1.0" encoding="UTF-8"?>
<svg xmlns="http://www.w3.org/2000/svg" xmlns:xlink="http://www.w3.org/1999/xlink" width="20pt" height="20pt" viewBox="0 0 20 20" version="1.1">
<g id="surface1">
<path style=" stroke:none;fill-rule:evenodd;fill:rgb(100%,100%,100%);fill-opacity:1;" d="M 17.808594 16.609375 C 17.808594 16.609375 15.289062 18.632812 10.269531 17.792969 C 6.460938 17.160156 4.429688 12.960938 4.429688 10.707031 C 4.429688 5.355469 8.390625 4.140625 11.066406 4.140625 C 13.742188 4.140625 15.488281 6.75 15.488281 8.769531 C 15.488281 10.789062 14.058594 12.558594 11.835938 12.558594 C 9.613281 12.558594 8.953125 10.996094 8.953125 9.5625 C 8.953125 8.125 10.113281 7.621094 11.175781 7.621094 C 12.234375 7.621094 12.597656 8.523438 12.597656 9.300781 C 12.597656 10.078125 11.992188 10.355469 11.488281 10.355469 C 10.988281 10.355469 10.9375 10.101562 10.746094 9.835938 C 10.550781 9.570312 10.992188 8.558594 10.269531 8.558594 C 9.546875 8.558594 9.414062 9.71875 9.414062 9.71875 C 9.414062 9.71875 9.675781 11.960938 11.835938 11.921875 C 13.996094 11.882812 15.019531 10.214844 14.722656 8.558594 C 14.425781 6.90625 12.820312 5.152344 10.003906 5.507812 C 7.191406 5.859375 6.039062 8.707031 6.546875 11.746094 C 7.054688 14.785156 10.695312 16.546875 13.558594 15.914062 C 16.421875 15.28125 19.273438 13.207031 19.273438 7.949219 C 19.273438 2.695312 14.722656 -0.464844 9.292969 0.0546875 C 3.867188 0.578125 0.496094 5.320312 0.714844 11.023438 C 0.929688 16.726562 6.339844 19.832031 10.914062 19.992188 C 15.488281 20.152344 18.292969 17.503906 18.292969 17.503906 C 18.292969 17.503906 18.925781 16.941406 18.675781 16.5 C 18.429688 16.0625 17.808594 16.609375 17.808594 16.609375 Z M 17.808594 16.609375 "/>
</g>
</svg>
