<?xml version="1.0" encoding="UTF-8"?>
<svg xmlns="http://www.w3.org/2000/svg" xmlns:xlink="http://www.w3.org/1999/xlink" width="20pt" height="20pt" viewBox="0 0 20 20" version="1.1">
<g id="surface1">
<path style=" stroke:none;fill-rule:evenodd;fill:rgb(100%,100%,100%);fill-opacity:1;" d="M 15.433594 9.5625 C 15.433594 9.558594 15.433594 9.558594 15.433594 9.554688 L 16.710938 2.117188 C 16.710938 2.113281 16.714844 2.109375 16.714844 2.109375 L 17.121094 2.109375 C 17.125 2.109375 17.125 2.113281 17.128906 2.113281 L 20.003906 11.214844 C 20.003906 11.21875 20 11.222656 20 11.222656 L 17.878906 12.878906 C 17.875 12.882812 17.871094 12.878906 17.871094 12.878906 Z M -0.0390625 14.492188 C -0.0390625 14.496094 -0.0351562 14.5 -0.0351562 14.5 L 4.335938 15.929688 C 4.335938 15.929688 4.339844 15.929688 4.339844 15.925781 L 14.105469 9.183594 C 14.109375 9.183594 14.109375 9.183594 14.109375 9.179688 L 15.15625 2.152344 C 15.15625 2.148438 15.15625 2.144531 15.152344 2.144531 L 6.5 2.144531 C 6.5 2.144531 6.496094 2.144531 6.496094 2.148438 L -0.0390625 10.027344 C -0.0390625 10.027344 -0.0390625 10.03125 -0.0390625 10.03125 Z M 6.15625 16.292969 L 10.929688 17.855469 C 10.929688 17.855469 10.933594 17.855469 10.933594 17.855469 L 16.617188 13.777344 C 16.621094 13.777344 16.621094 13.773438 16.621094 13.769531 L 14.488281 10.597656 C 14.488281 10.59375 14.484375 10.59375 14.480469 10.597656 Z M 6.15625 16.292969 "/>
</g>
</svg>
