<?xml version="1.0" encoding="UTF-8"?>
<svg xmlns="http://www.w3.org/2000/svg" xmlns:xlink="http://www.w3.org/1999/xlink" width="20pt" height="20pt" viewBox="0 0 20 20" version="1.1">
<g id="surface1">
<path style=" stroke:none;fill-rule:evenodd;fill:rgb(100%,100%,100%);fill-opacity:1;" d="M 0.00390625 9.941406 C 0 9.9375 0 9.933594 0.00390625 9.929688 L 5.03125 1.335938 C 5.035156 1.332031 5.039062 1.328125 5.042969 1.328125 L 15.011719 1.328125 C 15.015625 1.328125 15.023438 1.332031 15.023438 1.335938 L 19.996094 9.929688 C 20 9.933594 20 9.9375 19.996094 9.941406 L 15.023438 18.523438 C 15.023438 18.53125 15.015625 18.53125 15.011719 18.53125 L 5.042969 18.53125 C 5.039062 18.53125 5.035156 18.53125 5.03125 18.523438 Z M 14.632812 9.929688 C 14.632812 12.488281 12.558594 14.5625 10 14.5625 C 7.445312 14.5625 5.371094 12.488281 5.371094 9.929688 C 5.371094 7.371094 7.445312 5.296875 10 5.296875 C 12.558594 5.296875 14.632812 7.371094 14.632812 9.929688 Z M 14.632812 9.929688 "/>
</g>
</svg>
