<?xml version="1.0" encoding="UTF-8"?>
<svg xmlns="http://www.w3.org/2000/svg" xmlns:xlink="http://www.w3.org/1999/xlink" width="20pt" height="20pt" viewBox="0 0 20 20" version="1.1">
<g id="surface1">
<path style=" stroke:none;fill-rule:evenodd;fill:rgb(100%,100%,100%);fill-opacity:1;" d="M 16.492188 13.535156 C 16.492188 17.105469 13.585938 20 10.003906 20 C 6.421875 20 3.515625 17.105469 3.515625 13.535156 C 3.515625 10.0625 9.652344 0.527344 9.988281 0.0078125 C 9.996094 -0.00390625 10.011719 -0.00390625 10.019531 0.0078125 C 10.355469 0.527344 16.492188 10.0625 16.492188 13.535156 Z M 8.921875 17.925781 C 5.628906 17.207031 6.191406 13.558594 6.191406 13.558594 C 6.191406 13.558594 7.09375 15.761719 9.273438 16.472656 C 11.457031 17.1875 14.089844 16.140625 14.089844 16.140625 C 14.089844 16.140625 12.214844 18.648438 8.921875 17.925781 Z M 8.921875 17.925781 "/>
</g>
</svg>
